# xmcd CD database file
#
# Track frame offsets:
#	150
#	25285
#	45050
#	57400
#	79165
#	96648
#	129675
#	133278
#	168985
#	186220
#	205600
#
# Disc length: 2949 seconds
#
# Revision: 5
# Processed by: cddbd v1.5PL3 Copyright (c) Steve Scherf et al.
# Submitted via: CDex 1.51
#
DISCID=980b830b
DTITLE=Giovanni Mirabassi - Flavio Boltro - Glenn Ferris - Air
DYEAR=2003
DGENRE=Jazz
TTITLE0=Lili est la
TTITLE1=Memento mores
TTITLE2=Bobo's theme
TTITLE3=Mata hari
TTITLE4=Un monde de fous
TTITLE5=Jean-Paul chez les anges
TTITLE6=Adele and Papillon
TTITLE7=Behind the white door
TTITLE8=Les oiseaux de passage
TTITLE9=Des jours meilleurs
TTITLE10=Juste avant la guerre
EXTD=YEAR: 2003
EXTT0=
EXTT1=
EXTT2=
EXTT3=
EXTT4=
EXTT5=
EXTT6=
EXTT7=
EXTT8=
EXTT9=
EXTT10=
PLAYORDER=
